<svg xmlns="http://www.w3.org/2000/svg" xmlns:xlink="http://www.w3.org/1999/xlink" width="80" zoomAndPan="magnify" viewBox="0 0 60 30.000001" height="40" preserveAspectRatio="xMidYMid meet" version="1.0"><defs><clipPath id="a07a619abc"><path d="M 2 10 L 58 10 L 58 20 L 2 20 Z M 2 10 " clip-rule="nonzero"/></clipPath><clipPath id="4e96bb04ef"><path d="M 56.964844 9.992188 L 57.140625 18.703125 L 2.71875 19.808594 L 2.542969 11.097656 Z M 56.964844 9.992188 " clip-rule="nonzero"/></clipPath><clipPath id="da25c7e61c"><path d="M 56.964844 9.992188 L 57.140625 18.703125 L 2.71875 19.808594 L 2.542969 11.097656 Z M 56.964844 9.992188 " clip-rule="nonzero"/></clipPath><clipPath id="4621db8a82"><path d="M 56.964844 9.992188 L 57.140625 18.703125 L 2.71875 19.808594 L 2.542969 11.097656 Z M 56.964844 9.992188 " clip-rule="nonzero"/></clipPath></defs><g clip-path="url(#a07a619abc)"><g clip-path="url(#4e96bb04ef)"><g clip-path="url(#da25c7e61c)"><g clip-path="url(#4621db8a82)"><path fill="#c09131" d="M 2.722656 18.917969 C 2.703125 18.761719 2.9375 18.609375 3.367188 18.464844 C 3.796875 18.316406 4.421875 18.183594 5.1875 18.007812 C 5.953125 17.828125 6.855469 17.652344 7.851562 17.441406 C 8.351562 17.324219 8.871094 17.207031 9.40625 17.089844 C 9.941406 16.972656 10.492188 16.824219 11.054688 16.691406 C 11.617188 16.558594 12.1875 16.402344 12.765625 16.253906 C 13.339844 16.105469 13.921875 15.933594 14.5 15.777344 C 15.074219 15.617188 15.652344 15.457031 16.21875 15.300781 C 16.789062 15.140625 17.347656 14.976562 17.890625 14.816406 C 18.988281 14.5 20.023438 14.195312 20.949219 13.925781 C 21.875 13.65625 22.703125 13.421875 23.367188 13.238281 C 23.644531 13.164062 24.019531 13.0625 24.472656 12.9375 L 26.078125 12.523438 C 27.308594 12.21875 28.8125 11.851562 30.535156 11.496094 C 32.253906 11.144531 34.171875 10.835938 36.183594 10.632812 C 38.238281 10.414062 40.300781 10.335938 42.363281 10.40625 C 44.371094 10.472656 46.351562 10.71875 48.3125 11.148438 C 49.984375 11.515625 51.59375 12.058594 53.144531 12.773438 C 54.226562 13.261719 55.230469 13.867188 56.164062 14.59375 C 56.429688 14.792969 56.667969 15.015625 56.878906 15.265625 C 57.03125 15.445312 57.082031 15.570312 57.035156 15.640625 C 56.957031 15.761719 56.578125 15.675781 55.960938 15.457031 C 55.339844 15.234375 54.460938 14.898438 53.378906 14.554688 C 52.109375 14.152344 50.824219 13.835938 49.511719 13.605469 C 48.78125 13.472656 48.003906 13.371094 47.199219 13.28125 C 46.394531 13.191406 45.558594 13.144531 44.699219 13.117188 C 42.925781 13.070312 41.15625 13.132812 39.386719 13.304688 C 38.488281 13.390625 37.589844 13.503906 36.699219 13.632812 C 35.804688 13.765625 34.917969 13.917969 34.0625 14.082031 C 33.203125 14.25 32.351562 14.429688 31.53125 14.617188 C 31.121094 14.710938 30.71875 14.8125 30.320312 14.90625 C 29.925781 15 29.535156 15.109375 29.148438 15.203125 C 28.386719 15.394531 27.652344 15.601562 26.960938 15.78125 C 26.273438 15.960938 25.621094 16.148438 25.019531 16.308594 C 22.332031 17.050781 19.621094 17.773438 17.042969 18.34375 C 14.679688 18.886719 12.296875 19.277344 9.886719 19.519531 C 8.167969 19.695312 6.445312 19.707031 4.722656 19.558594 C 3.46875 19.40625 2.75 19.175781 2.722656 18.917969 Z M 2.722656 18.917969 " fill-opacity="1" fill-rule="nonzero"/></g></g></g></g></svg>